<svg height="900" width="1720" xmlns="http://www.w3.org/2000/svg" xmlns:xlink="http://www.w3.org/1999/xlink"><defs><path id="a" d="M0 0h1720v900H0z"/><mask id="b" fill="#fff"><use fill-rule="evenodd" xlink:href="#a"/></mask></defs><g fill="none" fill-rule="evenodd"><use fill="#204ecf" fill-rule="nonzero" xlink:href="#a"/><g mask="url(#b)" opacity=".6"><g fill="#183a9e" fill-rule="nonzero" opacity=".2"><path d="M1524.6 298.8l-53.4 30.9v62h.1l53.3-30.7v-.5zM1470.8 329.9v-.5l-53.3-30.8-.4.2-53.4 30.9v62h.1l53.3-30.7v-.5l.4.3 53.3 30.6zM1363.4 329.4l.3.2 53.4-30.9v-.2l-53.7-31zM1310.1 360.7l53.3 30.7v-62l-53.4-30.8-.4.2v61.7l.4.3zM880 795.5v62l-.2.1h-.1l-53.7-31v62.2l.2-.1h.1l53.5 31h.2l53.5-30.8v-62.5L880 795.5zM879.8 485l-53.5 31 53.5 31 .2.1 53.5-31v-.3L880 485zM664.8 298.7l-53.6 31 53.6 31zM664.8 298.6l-53.7-31v62h.1zM826 329.5l-53.5-31-.2.2v62h.2l53.5-31z"/><path d="M879.8 298.5h-.1l-53.7-31-53.6 31 53.6 31 .2.1 53.6-31zM503.7 205.1l.4.2 53.2-30.6v-.4l-53.6-31zM449.9 174.4v62l53.7-31v-62l-53.6 31zM181.2 81.2L127.5 50v62zM127.5 50.1L73.7 19v62.2h.1l53.7 31zM181.2 764.5v62l-53.7 31 53.7 31.1 53.7-31v-62.1l-53.6-31zM880 609.2v62l53.5-31v-.2L880 609.2zM826 578.2v124h.2l53.6-31V609l-53.3-30.8-.2-.1zM987.2 547v.4l.5-.3 53.3 30.7v-61.6L987.5 547zM1363.4 578.3V640l.3.2 53.4-30.9v-.4l-53.4-30.8zM1632 671.5v61.7l.4.2-.4.3v61.5l.4.2 53.4-30.8V702l-53.3-30.9zm.5 61.9zM1363.4 764.6v61.7l.3.2 53.4-30.9v-.3l-53.4-30.9zM1363.7 764.3l53.4 31v-62.1l-53.4-30.9zM1310.1 733.4l53.3 30.7v-61.5l-53.3 30.8zM1310 795.5v61.8l53.4-30.7v-.3l-53.4-30.8zM1255.9 764.6v62l53.7 31v-62.3l-53.3-30.9zM1255.9 392v61.7l.3.2 53.4-31v-.3l-53.3-30.9z"/><path d="M1256.3 391.7l53.3 30.9V361l-53.2 30.7zM1525 174.4l-.4.3-53.2 30.6v.1l53.2 30.8.3.2 53.4-30.8v-.6l-53.2-30.6zM1632.5 236.5l53.3 30.8v-61.6zM1578.3 453.6V392l-53.3 30.8zM1524.6 361v61.5l.3.3 53.4-30.9v-.5l-53.2-30.7zM1470.8 453.6v.3l53.7 31v-62l-53.3 31zM1255.9 81.2l-53.4 30.8v.2l53.4 30.9zM1202.2 174.2l.3.2h.1l53.3-30.9v-.4l-53.4-30.9-.3.2-53.4 31v61.8l.1.1 53.3-30.6zM1363.4 81.2V81L1310 50.1V112l53.4-30.8z"/><path d="M1309.6 112.2V50.3l-53.4 30.9-.3-.2v.2l53.7 31zM1255.9 515.8l-53.4-30.9-.3.2v61.8l.3.2 53.4-30.9zM1202.5 422.8v62l53.4 31 .3.1 53.4-30.9-53.7-31v-.3l-53.3-30.9zM987.2 671.4v61.9l.3.1h.2l-.5.3-53.2 30.7-.2-.2v.2l53.4 30.9.3.1 53.5-30.9v-62.3l-53.5-31zM665 609.2v62l53.5 31V640l-53.5-31z"/><path d="M664.8 671.3l-53.6 31 53.6 31 .2.1 53.5-31v-.2l-53.5-31zM664.8 671.2v-62l-53.6 31h-.1v62h.1l53.6-31zM396.3 577.8l.4.3 53.2-30.6v-.5l-53.6-31zM396.1 640.2v-62l-53.5 31zM342.4 547v62.1l53.7-31v-62l-53.6 31zM342.4 733.4v.3l-53.2 30.6-.4-.2v.3l53.6 31 53.7-31v-62l-53.6 31zM181.2 577.8V516l-53.7 31.1v.3l.5-.3zM181.3 577.8v.2l53.6 31v-61.9L181.3 516zM987.2 298.5v-61.9l-53.5 31-.2-.2v.2L880 298.4v.1l53.5 31 .2.1 53.5-31zM826.6 205.3l53.2-30.6v-.4l-53.5-31v62h.2zM826 205v-61.5l-53.5 31-.2-.2v.4l.5-.3zM718.5 454L665 485l53.5 31h.2l53.6-31-53.7-31z"/><path d="M665 485h-.2v62l.2.1 53.5-31v-.2l-53.5-31zM503.6 329.5v-61.9l-53.6 31zM449.9 298.6l-53.6 31 53.6 31.1v.4l.5-.4 53.2 30.7V329.6l-53.6-31zM342.5 298.5l53.6 31v-62l-53.6 31zM342.4 236.4l-53.6-31h-.1l-53.6 31v.1h-.1v62l53.7 31v-61.9l53.7-31.1z"/></g><g opacity=".1" stroke="#25a9ef" stroke-linecap="round" stroke-linejoin="round"><path d="M53.8-1L0 30.1v62l53.8 31.2M0 30.1l53.8 31.1M53.8-1l53.7 31.1v62l-53.7 31.2M107.5 30.1L53.7 61.2"/><path d="M161.2-1l-53.7 31.1v62l53.7 31.2M107.5 30.1l53.7 31.1M161.2-1L215 30.1v62l-53.8 31.2M215 30.1l-53.8 31.1M268.7-1L215 30.1v62l53.7 31.2M215 30.1l53.7 31.1M268.7-1l53.8 31.1v62l-53.8 31.2M322.5 30.1l-53.8 31.1M376.2-1l-53.7 31.1v62l53.7 31.2M322.5 30.1l53.7 31.1M376.2-1L430 30.1v62l-53.8 31.2M430 30.1l-53.8 31.1M483.7-1L430 30.1v62l53.7 31.2M430 30.1l53.7 31.1M483.7-1l53.7 31.1v62l-53.7 31.2M537.5 30.1l-53.8 31.1M591.2-1l-53.8 31.1v62l53.8 31.2M537.5 30.1l53.7 31.1M591.2-1L645 30.1v62l-53.8 31.2M645 30.1l-53.8 31.1M698.7-1L645 30.1v62l53.7 31.2M645 30.1l53.7 31.1M698.7-1l53.7 31.1v62l-53.7 31.2M752.4 30.1l-53.7 31.1M806.2-1l-53.8 31.1v62l53.8 31.2M752.4 30.1l53.8 31.1M806.2-1l53.7 31.1v62l-53.7 31.2M860 30.1l-53.8 31.1M913.8-1L860 30.1v62l53.8 31.2M860 30.1l53.8 31.1M913.8-1l53.7 31.1v62l-53.7 31.2M967.5 30.1l-53.7 31.1M1021.2-1l-53.7 31.1v62l53.7 31.2M967.5 30.1l53.7 31.1M1021.2-1l53.8 31.1v62l-53.8 31.2M1075 30.1l-53.8 31.1M1128.7-1L1075 30.1v62l53.7 31.2M1075 30.1l53.7 31.1M1128.7-1l53.8 31.1v62l-53.8 31.2M1182.5 30.1l-53.8 31.1M1236.2-1l-53.7 31.1v62l53.7 31.2M1182.5 30.1l53.7 31.1M1236.2-1l53.8 31.1v62l-53.8 31.2M1290 30.1l-53.8 31.1M1343.7-1L1290 30.1v62l53.7 31.2M1290 30.1l53.7 31.1M1343.7-1l53.7 31.1v62l-53.7 31.2M1397.5 30.1l-53.8 31.1M1451.2-1l-53.8 31.1v62l53.8 31.2M1397.5 30.1l53.7 31.1M1451.2-1l53.8 31.1v62l-53.8 31.2M1505 30.1l-53.8 31.1M1558.7-1L1505 30.1v62l53.7 31.2M1505 30.1l53.7 31.1M1558.7-1l53.7 31.1v62l-53.7 31.2M1612.4 30.1l-53.7 31.1M1666.2-1l-53.8 31.1v62l53.8 31.2M1612.4 30.1l53.8 31.1M1666.2-1l53.7 31.1v62l-53.7 31.2M1720 30.1l-53.8 31.1M107.5 92.2l-53.7 31.1v62.1l53.7 31.1M53.8 123.3l53.7 31.1"/><path d="M107.5 92.2l53.8 31.1v62.1l-53.8 31.1M161.3 123.3l-53.8 31.1M0 92.2l53.8 31.1v62.1L0 216.5M53.8 123.3L0 154.4M215 92.2l-53.7 31.1v62.1l53.7 31.1M161.3 123.3l53.7 31.1M215 92.2l53.8 31.1v62.1L215 216.5M268.8 123.3L215 154.4M322.5 92.2l-53.7 31.1v62.1l53.7 31.1M268.8 123.3l53.7 31.1M322.5 92.2l53.7 31.1v62.1l-53.7 31.1M376.3 123.3l-53.8 31.1M430 92.2l-53.8 31.1v62.1l53.8 31.1M376.3 123.3l53.7 31.1M430 92.2l53.8 31.1v62.1L430 216.5M483.8 123.3L430 154.4M537.5 92.2l-53.7 31.1v62.1l53.7 31.1M483.8 123.3l53.7 31.1M537.5 92.2l53.7 31.1v62.1l-53.7 31.1M591.2 123.3l-53.7 31.1M645 92.2l-53.8 31.1v62.1l53.8 31.1M591.2 123.3l53.8 31.1M645 92.2l53.7 31.1v62.1L645 216.5M698.7 123.3L645 154.4M752.5 92.2l-53.8 31.1v62.1l53.8 31.1M698.7 123.3l53.8 31.1M752.5 92.2l53.7 31.1v62.1l-53.7 31.1M806.2 123.3l-53.7 31.1M860 92.2l-53.7 31.1v62.1l53.7 31.1M806.3 123.3l53.7 31.1M860 92.2l53.8 31.1v62.1L860 216.5M913.8 123.3L860 154.4M967.5 92.2l-53.7 31.1v62.1l53.7 31.1M913.8 123.3l53.7 31.1M967.5 92.2l53.8 31.1v62.1l-53.8 31.1M1021.3 123.3l-53.8 31.1M1075 92.2l-53.7 31.1v62.1l53.7 31.1M1021.3 123.3l53.7 31.1M1075 92.2l53.8 31.1v62.1l-53.8 31.1M1128.8 123.3l-53.8 31.1M1182.5 92.2l-53.7 31.1v62.1l53.7 31.1M1128.8 123.3l53.7 31.1M1182.5 92.2l53.7 31.1v62.1l-53.7 31.1M1236.3 123.3l-53.8 31.1M1290 92.2l-53.8 31.1v62.1l53.8 31.1M1236.3 123.3l53.7 31.1M1290 92.2l53.8 31.1v62.1l-53.8 31.1M1343.8 123.3l-53.8 31.1M1397.5 92.2l-53.7 31.1v62.1l53.7 31.1M1343.8 123.3l53.7 31.1M1397.5 92.2l53.7 31.1v62.1l-53.7 31.1M1451.2 123.3l-53.7 31.1M1505 92.2l-53.8 31.1v62.1l53.8 31.1M1451.2 123.3l53.8 31.1M1505 92.2l53.7 31.1v62.1l-53.7 31.1M1558.7 123.3l-53.7 31.1M1612.5 92.2l-53.8 31.1v62.1l53.8 31.1M1558.7 123.3l53.8 31.1M1612.5 92.2l53.7 31.1v62.1l-53.7 31.1M1666.2 123.3l-53.7 31.1M1720 92.2l-53.8 31.1v62.1l53.7 31.1M1666.2 123.3l53.7 31.1"/><path d="M53.8 185.3L0 216.4v62.1l53.8 31.1M0 216.4l53.8 31.1M53.8 185.3l53.7 31.1v62.1l-53.7 31.1M107.5 216.4l-53.8 31.1"/><path d="M161.2 185.3l-53.7 31.1v62.1l53.7 31.1M107.5 216.4l53.7 31.1M161.2 185.3l53.8 31.1v62.1l-53.8 31.1M215 216.4l-53.8 31.1M268.7 185.3L215 216.4v62.1l53.7 31.1M215 216.4l53.7 31.1M268.7 185.3l53.8 31.1v62.1l-53.8 31.1M322.5 216.4l-53.8 31.1M376.2 185.3l-53.7 31.1v62.1l53.7 31.1M322.5 216.4l53.7 31.1M376.2 185.3l53.8 31.1v62.1l-53.8 31.1M430 216.4l-53.8 31.1M483.7 185.3L430 216.4v62.1l53.7 31.1M430 216.4l53.7 31.1M483.7 185.3l53.7 31.1v62.1l-53.7 31.1M537.5 216.4l-53.8 31.1M591.2 185.3l-53.8 31.1v62.1l53.8 31.1M537.5 216.4l53.7 31.1M591.2 185.3l53.8 31.1v62.1l-53.8 31.1M645 216.4l-53.8 31.1M698.7 185.3L645 216.4v62.1l53.7 31.1M645 216.4l53.7 31.1M698.7 185.3l53.7 31.1v62.1l-53.7 31.1M752.4 216.4l-53.7 31.1M806.2 185.3l-53.8 31.1v62.1l53.8 31.1M752.4 216.4l53.8 31.1M806.2 185.3l53.7 31.1v62.1l-53.7 31.1M860 216.4l-53.8 31.1M913.8 185.3L860 216.4v62.1l53.8 31.1M860 216.4l53.8 31.1M913.8 185.3l53.7 31.1v62.1l-53.7 31.1M967.5 216.4l-53.7 31.1M1021.2 185.3l-53.7 31.1v62.1l53.7 31.1M967.5 216.4l53.7 31.1M1021.2 185.3l53.8 31.1v62.1l-53.8 31.1M1075 216.4l-53.8 31.1M1128.7 185.3l-53.7 31.1v62.1l53.7 31.1M1075 216.4l53.7 31.1M1128.7 185.3l53.8 31.1v62.1l-53.8 31.1M1182.5 216.4l-53.8 31.1M1236.2 185.3l-53.7 31.1v62.1l53.7 31.1M1182.5 216.4l53.7 31.1M1236.2 185.3l53.8 31.1v62.1l-53.8 31.1M1290 216.4l-53.8 31.1M1343.7 185.3l-53.7 31.1v62.1l53.7 31.1M1290 216.4l53.7 31.1M1343.7 185.3l53.7 31.1v62.1l-53.7 31.1M1397.5 216.4l-53.8 31.1M1451.2 185.3l-53.8 31.1v62.1l53.8 31.1M1397.5 216.4l53.7 31.1M1451.2 185.3l53.8 31.1v62.1l-53.8 31.1M1505 216.4l-53.8 31.1M1558.7 185.3l-53.7 31.1v62.1l53.7 31.1M1505 216.4l53.7 31.1M1558.7 185.3l53.7 31.1v62.1l-53.7 31.1M1612.4 216.4l-53.7 31.1M1666.2 185.3l-53.8 31.1v62.1l53.8 31.1M1612.4 216.4l53.8 31.1M1666.2 185.3l53.7 31.1v62.1l-53.7 31.1M1720 216.4l-53.8 31.1M107.5 278.6l-53.7 31v62.1l53.7 31.1M53.8 309.7l53.7 31"/><path d="M107.5 278.6l53.8 31v62.1l-53.8 31.1M161.3 309.7l-53.8 31M0 278.6l53.8 31v62.1L0 402.9M53.8 309.7L0 340.7M215 278.6l-53.7 31v62.1l53.7 31.1M161.3 309.7l53.7 31M215 278.6l53.8 31v62.1L215 402.9M268.8 309.7l-53.8 31M322.5 278.6l-53.7 31v62.1l53.7 31.1M268.8 309.7l53.7 31M322.5 278.6l53.7 31v62.1l-53.7 31.1M376.3 309.7l-53.8 31M430 278.6l-53.8 31v62.1l53.8 31.1M376.3 309.7l53.7 31M430 278.6l53.8 31v62.1L430 402.9M483.8 309.7l-53.8 31M537.5 278.6l-53.7 31v62.1l53.7 31.1M483.8 309.7l53.7 31M537.5 278.6l53.7 31v62.1l-53.7 31.1M591.2 309.7l-53.7 31M645 278.6l-53.8 31v62.1l53.8 31.1M591.2 309.7l53.8 31M645 278.6l53.7 31v62.1L645 402.9M698.7 309.7l-53.7 31M752.5 278.6l-53.8 31v62.1l53.8 31.1M698.7 309.7l53.8 31M752.5 278.6l53.7 31v62.1l-53.7 31.1M806.2 309.7l-53.7 31M860 278.6l-53.7 31v62.1l53.7 31.1M806.3 309.7l53.7 31M860 278.6l53.8 31v62.1L860 402.9M913.8 309.7l-53.8 31M967.5 278.6l-53.7 31v62.1l53.7 31.1M913.8 309.7l53.7 31M967.5 278.6l53.8 31v62.1l-53.8 31.1M1021.3 309.7l-53.8 31M1075 278.6l-53.7 31v62.1l53.7 31.1M1021.3 309.7l53.7 31M1075 278.6l53.8 31v62.1l-53.8 31.1M1128.8 309.7l-53.8 31M1182.5 278.6l-53.7 31v62.1l53.7 31.1M1128.8 309.7l53.7 31M1182.5 278.6l53.7 31v62.1l-53.7 31.1M1236.3 309.7l-53.8 31M1290 278.6l-53.8 31v62.1l53.8 31.1M1236.3 309.7l53.7 31M1290 278.6l53.8 31v62.1l-53.8 31.1M1343.8 309.7l-53.8 31M1397.5 278.6l-53.7 31v62.1l53.7 31.1M1343.8 309.7l53.7 31M1397.5 278.6l53.7 31v62.1l-53.7 31.1M1451.2 309.7l-53.7 31M1505 278.6l-53.8 31v62.1l53.8 31.1M1451.2 309.7l53.8 31M1505 278.6l53.7 31v62.1l-53.7 31.1M1558.7 309.7l-53.7 31M1612.5 278.6l-53.8 31v62.1l53.8 31.1M1558.7 309.7l53.8 31M1612.5 278.6l53.7 31v62.1l-53.7 31.1M1666.2 309.7l-53.7 31M1720 278.6l-53.8 31v62.1l53.7 31.1M1666.2 309.7l53.7 31"/><path d="M53.8 371.7L0 402.7V465l53.8 31M0 402.8l53.8 31M53.8 371.7l53.7 31V465l-53.7 31M107.5 402.8l-53.8 31"/><path d="M161.2 371.7l-53.7 31V465l53.7 31M107.5 402.8l53.7 31M161.2 371.7l53.8 31V465l-53.8 31M215 402.8l-53.8 31M268.7 371.7l-53.7 31V465l53.7 31M215 402.8l53.7 31M268.7 371.7l53.8 31V465l-53.8 31M322.5 402.8l-53.8 31M376.2 371.7l-53.7 31V465l53.7 31M322.5 402.8l53.7 31M376.2 371.7l53.8 31V465l-53.8 31M430 402.8l-53.8 31M483.7 371.7l-53.7 31V465l53.7 31M430 402.8l53.7 31M483.7 371.7l53.7 31V465l-53.7 31M537.5 402.8l-53.8 31M591.2 371.7l-53.8 31V465l53.8 31M537.5 402.8l53.7 31M591.2 371.7l53.8 31V465l-53.8 31M645 402.8l-53.8 31M698.7 371.7l-53.7 31V465l53.7 31M645 402.8l53.7 31M698.7 371.7l53.7 31V465l-53.7 31M752.4 402.8l-53.7 31M806.2 371.7l-53.8 31V465l53.8 31M752.4 402.8l53.8 31M806.2 371.7l53.7 31V465l-53.7 31M860 402.8l-53.8 31M913.8 371.7l-53.8 31V465l53.8 31M860 402.8l53.8 31M913.8 371.7l53.7 31V465l-53.7 31M967.5 402.8l-53.7 31M1021.2 371.7l-53.7 31V465l53.7 31M967.5 402.8l53.7 31M1021.2 371.7l53.8 31V465l-53.8 31M1075 402.8l-53.8 31M1128.7 371.7l-53.7 31V465l53.7 31M1075 402.8l53.7 31M1128.7 371.7l53.8 31V465l-53.8 31M1182.5 402.8l-53.8 31M1236.2 371.7l-53.7 31V465l53.7 31M1182.5 402.8l53.7 31M1236.2 371.7l53.8 31V465l-53.8 31M1290 402.8l-53.8 31M1343.7 371.7l-53.7 31V465l53.7 31M1290 402.8l53.7 31M1343.7 371.7l53.7 31V465l-53.7 31M1397.5 402.8l-53.8 31M1451.2 371.7l-53.8 31V465l53.8 31M1397.5 402.8l53.7 31M1451.2 371.7l53.8 31V465l-53.8 31M1505 402.8l-53.8 31M1558.7 371.7l-53.7 31V465l53.7 31M1505 402.8l53.7 31M1558.7 371.7l53.7 31V465l-53.7 31M1612.4 402.8l-53.7 31M1666.2 371.7l-53.8 31V465l53.8 31M1612.4 402.8l53.8 31M1666.2 371.7l53.7 31V465l-53.7 31M1720 402.8l-53.8 31"/><path d="M107.5 465l-53.7 31v62l53.7 31.2M53.8 496l53.7 31.1M107.5 465l53.8 31v62l-53.8 31.2M161.3 496l-53.8 31.1M0 465l53.8 31v62L0 589.3M53.8 496L0 527.1M215 465l-53.7 31v62l53.7 31.2M161.3 496l53.7 31.1M215 465l53.8 31v62L215 589.3M268.8 496L215 527.1M322.5 465l-53.7 31v62l53.7 31.2M268.8 496l53.7 31.1M322.5 465l53.7 31v62l-53.7 31.2M376.3 496l-53.8 31.1M430 465l-53.8 31v62l53.8 31.2M376.3 496l53.7 31.1M430 465l53.8 31v62L430 589.3M483.8 496L430 527.1M537.5 465l-53.7 31v62l53.7 31.2M483.8 496l53.7 31.1M537.5 465l53.7 31v62l-53.7 31.2M591.2 496l-53.7 31.1M645 465l-53.8 31v62l53.8 31.2M591.2 496l53.8 31.1M645 465l53.7 31v62L645 589.3M698.7 496L645 527.1M752.5 465l-53.8 31v62l53.8 31.2M698.7 496l53.8 31.1M752.5 465l53.7 31v62l-53.7 31.2M806.2 496l-53.7 31.1M860 465l-53.7 31v62l53.7 31.2M806.3 496l53.7 31.1M860 465l53.8 31v62L860 589.3M913.8 496L860 527.1M967.5 465l-53.7 31v62l53.7 31.2M913.8 496l53.7 31.1M967.5 465l53.8 31v62l-53.8 31.2M1021.3 496l-53.8 31.1M1075 465l-53.7 31v62l53.7 31.2M1021.3 496l53.7 31.1M1075 465l53.8 31v62l-53.8 31.2M1128.8 496l-53.8 31.1M1182.5 465l-53.7 31v62l53.7 31.2M1128.8 496l53.7 31.1M1182.5 465l53.7 31v62l-53.7 31.2M1236.3 496l-53.8 31.1M1290 465l-53.8 31v62l53.8 31.2M1236.3 496l53.7 31.1M1290 465l53.8 31v62l-53.8 31.2M1343.8 496l-53.8 31.1M1397.5 465l-53.7 31v62l53.7 31.2M1343.8 496l53.7 31.1M1397.5 465l53.7 31v62l-53.7 31.2M1451.2 496l-53.7 31.1M1505 465l-53.8 31v62l53.8 31.2M1451.2 496l53.8 31.1M1505 465l53.7 31v62l-53.7 31.2M1558.7 496l-53.7 31.1M1612.5 465l-53.8 31v62l53.8 31.2M1558.7 496l53.8 31.1M1612.5 465l53.7 31v62l-53.7 31.2M1666.2 496l-53.7 31.1M1720 465l-53.8 31v62l53.7 31.2M1666.2 496l53.7 31.1"/><path d="M53.8 558L0 589.1v62l53.8 31.2M0 589.1l53.8 31.1M53.8 558l53.7 31.1v62l-53.7 31.2M107.5 589.1l-53.8 31.1"/><path d="M161.2 558l-53.7 31.1v62l53.7 31.2M107.5 589.1l53.7 31.1M161.2 558l53.8 31.1v62l-53.8 31.2M215 589.1l-53.8 31.1M268.7 558L215 589.1v62l53.7 31.2M215 589.1l53.7 31.1M268.7 558l53.8 31.1v62l-53.8 31.2M322.5 589.1l-53.8 31.1M376.2 558l-53.7 31.1v62l53.7 31.2M322.5 589.1l53.7 31.1M376.2 558l53.8 31.1v62l-53.8 31.2M430 589.1l-53.8 31.1M483.7 558L430 589.1v62l53.7 31.2M430 589.1l53.7 31.1M483.7 558l53.7 31.1v62l-53.7 31.2M537.5 589.1l-53.8 31.1M591.2 558l-53.8 31.1v62l53.8 31.2M537.5 589.1l53.7 31.1M591.2 558l53.8 31.1v62l-53.8 31.2M645 589.1l-53.8 31.1M698.7 558L645 589.1v62l53.7 31.2M645 589.1l53.7 31.1M698.7 558l53.7 31.1v62l-53.7 31.2M752.4 589.1l-53.7 31.1M806.2 558l-53.8 31.1v62l53.8 31.2M752.4 589.1l53.8 31.1M806.2 558l53.7 31.1v62l-53.7 31.2M860 589.1l-53.8 31.1M913.8 558L860 589.1v62l53.8 31.2M860 589.1l53.8 31.1M913.8 558l53.7 31.1v62l-53.7 31.2M967.5 589.1l-53.7 31.1M1021.2 558l-53.7 31.1v62l53.7 31.2M967.5 589.1l53.7 31.1M1021.2 558l53.8 31.1v62l-53.8 31.2M1075 589.1l-53.8 31.1M1128.7 558l-53.7 31.1v62l53.7 31.2M1075 589.1l53.7 31.1M1128.7 558l53.8 31.1v62l-53.8 31.2M1182.5 589.1l-53.8 31.1M1236.2 558l-53.7 31.1v62l53.7 31.2M1182.5 589.1l53.7 31.1M1236.2 558l53.8 31.1v62l-53.8 31.2M1290 589.1l-53.8 31.1M1343.7 558l-53.7 31.1v62l53.7 31.2M1290 589.1l53.7 31.1M1343.7 558l53.7 31.1v62l-53.7 31.2M1397.5 589.1l-53.8 31.1M1451.2 558l-53.8 31.1v62l53.8 31.2M1397.5 589.1l53.7 31.1M1451.2 558l53.8 31.1v62l-53.8 31.2M1505 589.1l-53.8 31.1M1558.7 558l-53.7 31.1v62l53.7 31.2M1505 589.1l53.7 31.1M1558.7 558l53.7 31.1v62l-53.7 31.2M1612.4 589.1l-53.7 31.1M1666.2 558l-53.8 31.1v62l53.8 31.2M1612.4 589.1l53.8 31.1M1666.2 558l53.7 31.1v62l-53.7 31.2M1720 589.1l-53.8 31.1M107.5 651.2l-53.7 31.1v62.1l53.7 31.1M53.8 682.3l53.7 31.1"/><path d="M107.5 651.2l53.8 31.1v62.1l-53.8 31.1M161.3 682.3l-53.8 31.1M0 651.2l53.8 31.1v62.1L0 775.5M53.8 682.3L0 713.4M215 651.2l-53.7 31.1v62.1l53.7 31.1M161.3 682.3l53.7 31.1M215 651.2l53.8 31.1v62.1L215 775.5M268.8 682.3L215 713.4M322.5 651.2l-53.7 31.1v62.1l53.7 31.1M268.8 682.3l53.7 31.1M322.5 651.2l53.7 31.1v62.1l-53.7 31.1M376.3 682.3l-53.8 31.1M430 651.2l-53.8 31.1v62.1l53.8 31.1M376.3 682.3l53.7 31.1M430 651.2l53.8 31.1v62.1L430 775.5M483.8 682.3L430 713.4M537.5 651.2l-53.7 31.1v62.1l53.7 31.1M483.8 682.3l53.7 31.1M537.5 651.2l53.7 31.1v62.1l-53.7 31.1M591.2 682.3l-53.7 31.1M645 651.2l-53.8 31.1v62.1l53.8 31.1M591.2 682.3l53.8 31.1M645 651.2l53.7 31.1v62.1L645 775.5M698.7 682.3L645 713.4M752.5 651.2l-53.8 31.1v62.1l53.8 31.1M698.7 682.3l53.8 31.1M752.5 651.2l53.7 31.1v62.1l-53.7 31.1M806.2 682.3l-53.7 31.1M860 651.2l-53.7 31.1v62.1l53.7 31.1M806.3 682.3l53.7 31.1M860 651.2l53.8 31.1v62.1L860 775.5M913.8 682.3L860 713.4M967.5 651.2l-53.7 31.1v62.1l53.7 31.1M913.8 682.3l53.7 31.1M967.5 651.2l53.8 31.1v62.1l-53.8 31.1M1021.3 682.3l-53.8 31.1M1075 651.2l-53.7 31.1v62.1l53.7 31.1M1021.3 682.3l53.7 31.1M1075 651.2l53.8 31.1v62.1l-53.8 31.1M1128.8 682.3l-53.8 31.1M1182.5 651.2l-53.7 31.1v62.1l53.7 31.1M1128.8 682.3l53.7 31.1M1182.5 651.2l53.7 31.1v62.1l-53.7 31.1M1236.3 682.3l-53.8 31.1M1290 651.2l-53.8 31.1v62.1l53.8 31.1M1236.3 682.3l53.7 31.1M1290 651.2l53.8 31.1v62.1l-53.8 31.1M1343.8 682.3l-53.8 31.1M1397.5 651.2l-53.7 31.1v62.1l53.7 31.1M1343.8 682.3l53.7 31.1M1397.5 651.2l53.7 31.1v62.1l-53.7 31.1M1451.2 682.3l-53.7 31.1M1505 651.2l-53.8 31.1v62.1l53.8 31.1M1451.2 682.3l53.8 31.1M1505 651.2l53.7 31.1v62.1l-53.7 31.1M1558.7 682.3l-53.7 31.1M1612.5 651.2l-53.8 31.1v62.1l53.8 31.1M1558.7 682.3l53.8 31.1M1612.5 651.2l53.7 31.1v62.1l-53.7 31.1M1666.2 682.3l-53.7 31.1M1720 651.2l-53.8 31.1v62.1l53.7 31.1M1666.2 682.3l53.7 31.1"/><path d="M53.8 744.3L0 775.4v62.1l53.8 31.1M0 775.4l53.8 31.1M53.8 744.3l53.7 31.1v62.1l-53.7 31.1M107.5 775.4l-53.8 31.1"/><path d="M161.2 744.3l-53.7 31.1v62.1l53.7 31.1M107.5 775.4l53.7 31.1M161.2 744.3l53.8 31.1v62.1l-53.8 31.1M215 775.4l-53.8 31.1M268.7 744.3L215 775.4v62.1l53.7 31.1M215 775.4l53.7 31.1M268.7 744.3l53.8 31.1v62.1l-53.8 31.1M322.5 775.4l-53.8 31.1M376.2 744.3l-53.7 31.1v62.1l53.7 31.1M322.5 775.4l53.7 31.1M376.2 744.3l53.8 31.1v62.1l-53.8 31.1M430 775.4l-53.8 31.1M483.7 744.3L430 775.4v62.1l53.7 31.1M430 775.4l53.7 31.1M483.7 744.3l53.7 31.1v62.1l-53.7 31.1M537.5 775.4l-53.8 31.1M591.2 744.3l-53.8 31.1v62.1l53.8 31.1M537.5 775.4l53.7 31.1M591.2 744.3l53.8 31.1v62.1l-53.8 31.1M645 775.4l-53.8 31.1M698.7 744.3L645 775.4v62.1l53.7 31.1M645 775.4l53.7 31.1M698.7 744.3l53.7 31.1v62.1l-53.7 31.1M752.4 775.4l-53.7 31.1M806.2 744.3l-53.8 31.1v62.1l53.8 31.1M752.4 775.4l53.8 31.1M806.2 744.3l53.7 31.1v62.1l-53.7 31.1M860 775.4l-53.8 31.1M913.8 744.3L860 775.4v62.1l53.8 31.1M860 775.4l53.8 31.1M913.8 744.3l53.7 31.1v62.1l-53.7 31.1M967.5 775.4l-53.7 31.1M1021.2 744.3l-53.7 31.1v62.1l53.7 31.1M967.5 775.4l53.7 31.1M1021.2 744.3l53.8 31.1v62.1l-53.8 31.1M1075 775.4l-53.8 31.1M1128.7 744.3l-53.7 31.1v62.1l53.7 31.1M1075 775.4l53.7 31.1M1128.7 744.3l53.8 31.1v62.1l-53.8 31.1M1182.5 775.4l-53.8 31.1M1236.2 744.3l-53.7 31.1v62.1l53.7 31.1M1182.5 775.4l53.7 31.1M1236.2 744.3l53.8 31.1v62.1l-53.8 31.1M1290 775.4l-53.8 31.1M1343.7 744.3l-53.7 31.1v62.1l53.7 31.1M1290 775.4l53.7 31.1M1343.7 744.3l53.7 31.1v62.1l-53.7 31.1M1397.5 775.4l-53.8 31.1M1451.2 744.3l-53.8 31.1v62.1l53.8 31.1M1397.5 775.4l53.7 31.1M1451.2 744.3l53.8 31.1v62.1l-53.8 31.1M1505 775.4l-53.8 31.1M1558.7 744.3l-53.7 31.1v62.1l53.7 31.1M1505 775.4l53.7 31.1M1558.7 744.3l53.7 31.1v62.1l-53.7 31.1M1612.4 775.4l-53.7 31.1M1666.2 744.3l-53.8 31.1v62.1l53.8 31.1M1612.4 775.4l53.8 31.1M1666.2 744.3l53.7 31.1v62.1l-53.7 31.1M1720 775.4l-53.8 31.1M53.8 868.7l53.7 31M161.3 868.7l-53.8 31M53.8 868.7L0 899.7M161.3 868.7l53.7 31M268.8 868.7l-53.8 31M268.8 868.7l53.7 31M376.3 868.7l-53.8 31M376.3 868.7l53.7 31M483.8 868.7l-53.8 31M483.8 868.7l53.7 31M591.2 868.7l-53.7 31M591.2 868.7l53.8 31M698.7 868.7l-53.7 31M698.7 868.7l53.8 31M806.2 868.7l-53.7 31M806.3 868.7l53.7 31M913.8 868.7l-53.8 31M913.8 868.7l53.7 31M1021.3 868.7l-53.8 31M1021.3 868.7l53.7 31M1128.8 868.7l-53.8 31M1128.8 868.7l53.7 31M1236.3 868.7l-53.8 31M1236.3 868.7l53.7 31M1343.8 868.7l-53.8 31M1343.8 868.7l53.7 31M1451.2 868.7l-53.7 31M1451.2 868.7l53.8 31M1558.7 868.7l-53.7 31M1558.7 868.7l53.8 31M1666.2 868.7l-53.7 31M1666.2 868.7l53.7 31M0-21v940.8M53.7-21v940.8M107.5-21v940.8M161.2-21v940.8M215-21v940.8M268.7-21v940.8M322.4-21v940.8M376.1-21v940.8M429.9-21v940.8M483.6-21v940.8M537.3-21v940.8M591-21v940.8M644.8-21v940.8M698.5-21v940.8M752.3-21v940.8M806-21v940.8M859.8-21v940.8M913.5-21v940.8M967.2-21v940.8M1021-21v940.8M1074.7-21v940.8M1128.4-21v940.8M1182.2-21v940.8M1235.9-21v940.8M1289.6-21v940.8M1343.4-21v940.8M1397-21v940.8M1450.8-21v940.8M1504.6-21v940.8M1558.3-21v940.8M1612-21v940.8M1665.8-21v940.8M1719.5-21v940.8M268.8 61.2l53.7 31M376.2 61.2l53.7 31M161.2 61.2l53.7 31M53.8 61.2l53.8 31M698.5 61.2l53.8 31M806 61.2l53.7 31M591 61.2l53.8 31M483.6 61.2l53.7 31M1128.4 61.2l53.8 31M1235.8 61.2l53.8 31M1020.9 61.2l53.7 31M913.5 61.2l53.7 31M1558.3 61.2l53.8 31M1665.7 61.2l53.8 31M1450.8 61.2l53.7 31M1343.4 61.2l53.7 31M1450.8 61.2l-53.7 31M1343.4 61.2l-53.7 31M1558.4 61.2l-53.8 31M1665.8 61.2l-53.8 31M1021 61.2l-53.7 31M913.6 61.2l-53.7 31M1128.6 61.2l-53.8 31M1236 61.2l-53.8 31M591.1 61.2l-53.7 31M483.7 61.2l-53.7 31M698.7 61.2l-53.7 31M806 61.2l-53.7 31M161.3 61.2l-53.8 31M53.9 61.2L0 92.2M268.8 61.2l-53.7 31M376.2 61.2l-53.7 31"/><g><path d="M215.5 154.4l53.8 31M323 154.4l53.7 31M108 154.4l53.7 31M.6 154.4l53.7 31M645.3 154.4l53.8 31M752.7 154.4l53.8 31M537.8 154.4l53.7 31M430.4 154.4l53.7 31M1075.2 154.4l53.7 31M1182.6 154.4l53.7 31M967.6 154.4l53.8 31M860.2 154.4l53.8 31M1505 154.4l53.8 31M1612.5 154.4l53.7 31M1397.5 154.4l53.8 31M1290.1 154.4l53.8 31"/></g><g><path d="M1397.6 154.4l-53.8 31M1290.2 154.4l-53.8 31M1505.1 154.4l-53.7 31M1612.5 154.4l-53.7 31M1719.5 154.4l-53.8 31M967.8 154.4l-53.8 31M860.4 154.4l-53.8 31M1075.3 154.4l-53.7 31M1182.7 154.4l-53.7 31M537.9 154.4l-53.7 31M430.5 154.4l-53.7 31M645.5 154.4l-53.8 31M752.9 154.4l-53.8 31M108 154.4l-53.7 31M215.6 154.4l-53.8 31M323 154.4l-53.8 31"/></g><g><path d="M268.8 247.5l53.7 31M376.2 247.5l53.7 31M161.2 247.5l53.7 31M53.8 247.5l53.8 31M698.5 247.5l53.8 31M806 247.5l53.7 31M591 247.5l53.8 31M483.6 247.5l53.7 31M1128.4 247.5l53.8 31M1235.8 247.5l53.8 31M1020.9 247.5l53.7 31M913.5 247.5l53.7 31M1558.3 247.5l53.8 31M1665.7 247.5l53.8 31M1450.8 247.5l53.7 31M1343.4 247.5l53.7 31"/></g><g><path d="M1450.8 247.5l-53.7 31M1343.4 247.5l-53.7 31M1558.4 247.5l-53.8 31M1665.8 247.5l-53.8 31M1021 247.5l-53.7 31M913.6 247.5l-53.7 31M1128.6 247.5l-53.8 31M1236 247.5l-53.8 31M591.1 247.5l-53.7 31M483.7 247.5l-53.7 31M698.7 247.5l-53.7 31M806 247.5l-53.7 31M161.3 247.5l-53.8 31M53.9 247.5L0 278.5M268.8 247.5l-53.7 31M376.2 247.5l-53.7 31"/></g><g><path d="M215.5 340.7l53.8 31M323 340.7l53.7 31M108 340.7l53.7 31M.6 340.7l53.7 31M645.3 340.7l53.8 31M752.7 340.7l53.8 31M537.8 340.7l53.7 31M430.4 340.7l53.7 31M1075.2 340.7l53.7 31M1182.6 340.7l53.7 31M967.6 340.7l53.8 31M860.2 340.7l53.8 31M1505 340.7l53.8 31M1612.5 340.7l53.7 31M1397.5 340.7l53.8 31M1290.1 340.7l53.8 31"/></g><g><path d="M1397.6 340.7l-53.8 31M1290.2 340.7l-53.8 31M1505.1 340.7l-53.7 31M1612.5 340.7l-53.7 31M1719.5 340.7l-53.8 31M967.8 340.7l-53.8 31M860.4 340.7l-53.8 31M1075.3 340.7l-53.7 31M1182.7 340.7l-53.7 31M537.9 340.7l-53.7 31M430.5 340.7l-53.7 31M645.5 340.7l-53.8 31M752.9 340.7l-53.8 31M108 340.7l-53.7 31M215.6 340.7l-53.8 31M323 340.7l-53.8 31"/></g><g><path d="M268.8 434l53.7 31M376.2 434l53.7 31M161.2 434l53.7 31M53.8 434l53.8 31M698.5 434l53.8 31M806 434l53.7 31M591 434l53.8 31M483.6 434l53.7 31M1128.4 434l53.8 31M1235.8 434l53.8 31M1020.9 434l53.7 31M913.5 434l53.7 31M1558.3 434l53.8 31M1665.7 434l53.8 31M1450.8 434l53.7 31M1343.4 434l53.7 31"/></g><g><path d="M1450.8 434l-53.7 31M1343.4 434l-53.7 31M1558.4 434l-53.8 31M1665.8 434l-53.8 31M1021 434l-53.7 31M913.6 434L860 465M1128.6 434l-53.8 31M1236 434l-53.8 31M591.1 434l-53.7 31M483.7 434L430 465M698.7 434L645 465M806 434l-53.7 31M161.3 434l-53.8 31M53.9 434L0 465M268.8 434l-53.7 31M376.2 434l-53.7 31"/></g><g><path d="M215.5 527l53.8 31M323 527l53.7 31M108 527l53.7 31M.6 527l53.7 31M645.3 527l53.8 31M752.7 527l53.8 31M537.8 527l53.7 31M430.4 527l53.7 31M1075.2 527l53.7 31M1182.6 527l53.7 31M967.6 527l53.8 31M860.2 527l53.8 31M1505 527l53.8 31M1612.5 527l53.7 31M1397.5 527l53.8 31M1290.1 527l53.8 31"/></g><g><path d="M1397.6 527l-53.8 31M1290.2 527l-53.8 31M1505.1 527l-53.7 31M1612.5 527l-53.7 31M1719.5 527l-53.8 31M967.8 527L914 558M860.4 527l-53.8 31M1075.3 527l-53.7 31M1182.7 527l-53.7 31M537.9 527l-53.7 31M430.5 527l-53.7 31M645.5 527l-53.8 31M752.9 527L699 558M108 527l-53.7 31M215.6 527l-53.8 31M323 527l-53.8 31"/></g><g><path d="M268.8 620.2l53.7 31M376.2 620.2l53.7 31M161.2 620.2l53.7 31M53.8 620.2l53.8 31M698.5 620.2l53.8 31M806 620.2l53.7 31M591 620.2l53.8 31M483.6 620.2l53.7 31M1128.4 620.2l53.8 31M1235.8 620.2l53.8 31M1020.9 620.2l53.7 31M913.5 620.2l53.7 31M1558.3 620.2l53.8 31M1665.7 620.2l53.8 31M1450.8 620.2l53.7 31M1343.4 620.2l53.7 31"/></g><g><path d="M1450.8 620.2l-53.7 31M1343.4 620.2l-53.7 31M1558.4 620.2l-53.8 31M1665.8 620.2l-53.8 31M1021 620.2l-53.7 31M913.6 620.2l-53.7 31M1128.6 620.2l-53.8 31M1236 620.2l-53.8 31M591.1 620.2l-53.7 31M483.7 620.2l-53.7 31M698.7 620.2l-53.7 31M806 620.2l-53.7 31M161.3 620.2l-53.8 31M53.9 620.2L0 651.2M268.8 620.2l-53.7 31M376.2 620.2l-53.7 31"/></g><g><path d="M215.5 713.4l53.8 31M323 713.4l53.7 31M108 713.4l53.7 31M.6 713.4l53.7 31M645.3 713.4l53.8 31M752.7 713.4l53.8 31M537.8 713.4l53.7 31M430.4 713.4l53.7 31M1075.2 713.4l53.7 31M1182.6 713.4l53.7 31M967.6 713.4l53.8 31M860.2 713.4l53.8 31M1505 713.4l53.8 31M1612.5 713.4l53.7 31M1397.5 713.4l53.8 31M1290.1 713.4l53.8 31"/></g><g><path d="M1397.6 713.4l-53.8 31M1290.2 713.4l-53.8 31M1505.1 713.4l-53.7 31M1612.5 713.4l-53.7 31M1719.5 713.4l-53.8 31M967.8 713.4l-53.8 31M860.4 713.4l-53.8 31M1075.3 713.4l-53.7 31M1182.7 713.4l-53.7 31M537.9 713.4l-53.7 31M430.5 713.4l-53.7 31M645.5 713.4l-53.8 31M752.9 713.4l-53.8 31M108 713.4l-53.7 31M215.6 713.4l-53.8 31M323 713.4l-53.8 31"/></g><g><path d="M268.8 806.5l53.7 31M376.2 806.5l53.7 31M161.2 806.5l53.7 31M53.8 806.5l53.8 31M698.5 806.5l53.8 31M806 806.5l53.7 31M591 806.5l53.8 31M483.6 806.5l53.7 31M1128.4 806.5l53.8 31M1235.8 806.5l53.8 31M1020.9 806.5l53.7 31M913.5 806.5l53.7 31M1558.3 806.5l53.8 31M1665.7 806.5l53.8 31M1450.8 806.5l53.7 31M1343.4 806.5l53.7 31"/></g><g><path d="M1450.8 806.5l-53.7 31M1343.4 806.5l-53.7 31M1558.4 806.5l-53.8 31M1665.8 806.5l-53.8 31M1021 806.5l-53.7 31M913.6 806.5l-53.7 31M1128.6 806.5l-53.8 31M1236 806.5l-53.8 31M591.1 806.5l-53.7 31M483.7 806.5l-53.7 31M698.7 806.5l-53.7 31M806 806.5l-53.7 31M161.3 806.5l-53.8 31M53.9 806.5L0 837.5M268.8 806.5l-53.7 31M376.2 806.5l-53.7 31"/></g></g><g opacity=".7" transform="translate(-4 26)"><path d="M648.8 625.2l-53.6 31.1v62.1M1455.2 470l-53.6 31-53.8-31" stroke="#25a9ef" stroke-linecap="round" stroke-linejoin="round"/><path d="M1616.2 749.4l53.8 31.1 53.8-31" stroke="#25a9ef"/><g stroke-linecap="round" stroke-linejoin="round"><path d="M595.2 656.3l-53.3 31-54.1-31 53.5-31.1V563l-53.5-31v-62" stroke="#25a9ef"/><path d="M111.5 625.2l53.8 31.1-53.3 31-54.2-31 53.7-31v-62.1l53.8-31.1 53.7 31v62.1l-53.7 31.1v62.1l53.7 31 54.3-31 53.2 31.1v62l53.7 31.1 53.8-31v-62.2l-53.7-31v-62l53.7-31.2 53.8 31.1" opacity=".5" stroke="#00cc83"/><path d="M219.6 687.4l53.1-31.1-53.7-31" stroke="#00cc83"/><path d="M111.5 563.2L57.7 532M57.8 345.8l53.7 31V439" stroke="#25a9ef"/><path d="M111.5 252.6v-62l53.7-31.3v-62l-53.6-31.1 53.7-31" stroke="#00cc83"/><path d="M165.2 97.3l53.8-31 53.7 31v62L219 190.4l53.8 31.1" stroke="#25a9ef"/><path d="M111.5 190.5l53.8 31 53.7-31v62l53.7 31.1v62l53.8 31.2 53.7-31.1" opacity=".5" stroke="#25a9ef"/><path d="M326.5 314.8l53.7-31.2-53.7-31v-62.2l-53.8-31M219 128.4l53.7-31.1 54.3 31M380.2 159.3l53.8 31.2v62M434 190.5l53.7-31.2v-62l53.6-31.1.2-62.1M434 4.1l53.7 31.1" stroke="#25a9ef"/><path d="M487.7 97.3l54 31 53.5-31" stroke="#25a9ef"/><path d="M595.2 159.4l53.7 31v62.2l53.8 31 53.6-31 .1-62.2 54.2-31 53.4 31.1" opacity=".5" stroke="#25a9ef"/><path d="M649.5 314.7l53.2-31 54.1 31 53.4-31v62l-53.7 31.1-53.8-31-53.8 31M702.7 283.7v62" stroke="#25a9ef"/><path d="M756.3 439l53.9 31 53.8-31.1v-62l54-31.2-.2-62 53.4-31.2.3-62-53.8-31.2v-62l53.8-31V4" stroke="#00cc83"/><path d="M971.5 66.2l53.8 31.1-53.8 31.1-53.7-31M1025.3 97.3l53.7-31.1" stroke="#25a9ef"/><path d="M1132.4 35.2l54-31.1-.2 62-53.4 31.2v62l-53.8 31.1-53.8-31" stroke="#00cc83"/><path d="M1079 190.4l-.4 62.1 54.1 31.1v62.1l53.8 31.1" stroke="#25a9ef"/><path d="M1240.2 159.3l53.8 31.1 53.9-31-.1-62-53.8 31-53.8-31.1v62l-54 31.1v62.1l54 31.2-53.7 31-53.8-31" opacity=".5" stroke="#25a9ef"/><path d="M1293.6 66.2l54.2 31.1 53.3-31.1M1347.9 159.3l53.5 31.1v62.1M1455.2 97.3v62.1l-53.8 31" stroke="#25a9ef"/><path d="M1509 190.4l53.7-31 53.7 31v62.2l53.8 31v62.1l-53.8 31-53.7-31v-62l53.8 31" opacity=".5" stroke="#25a9ef"/><path d="M1670.2 221.5l-53.8-31-54.1 31 .4 62.2-53.7 31" stroke="#00cc83"/><path d="M1509 501.1l-53.8-31.2-.4-62 54.1-31.1 53.8 31M1669.7 532l-53.3 31.1-53.6-31-53.8 31-53.8-31M1616.4 563.1l53.3 31.1M1616.4 811.5v-62l53.8-31.2M1616.4 749.4l-53.7-31v-62l-54.2-31.2M1455.4 718.4v-62.1l-54.3-31.1v-62" stroke="#25a9ef"/><path d="M1347.8 656.3l53.8 31 53.8-31" stroke="#25a9ef"/><path d="M1401.5 749.4l-54.1 31.2-53.4-31.2 53.9-31 53.6 31 53.9-31 53.6 31.1 53.7-31.2" opacity=".5" stroke="#25a9ef"/><path d="M1293.6 625.2l-53.4 31.1v62l53.8 31.1-54 31.2v62M1079 749.4v62.1l53.4-31v-62.1l-53.2-31M1025.2 718.3v-62l-53.7-31-53.7 31-54-31.1-53.6 31-53.9-31-53.6 31-54-31V563" stroke="#25a9ef"/><path d="M917.8 656.3v62.1l53.7 31 53.7-31 53.8 31 54-31 107 62.2M1025.2 656.3l-53.7 31.1M756.4 749.4l-53.7-31v-62.1" stroke="#25a9ef"/><path d="M756.4 749.4l-53.8 31.2 53.7 31" opacity=".5" stroke="#25a9ef"/><path d="M702.5 780.5l-53.6-31-53.9 31" stroke="#25a9ef"/><path d="M756.9 749.5a62.1 62.1 0 1 0 0-124.3 62.1 62.1 0 0 0 0 124.3zM434 190.2A62.1 62.1 0 1 0 434 66a62.1 62.1 0 0 0 0 124.3z" stroke="#25a9ef" stroke-dasharray="2.0019 3.0028"/><g stroke="#00cc83"><path d="M156.9 749.4v-1"/><path d="M157 745.4a62.1 62.1 0 0 1 124.1 1.5" stroke-dasharray="2.0019 3.0028"/><path d="M281.1 748.4v1"/></g><path d="M1535.7 487.7a80.8 80.8 0 1 0 0-161.7 80.8 80.8 0 0 0 0 161.7z" stroke="#25a9ef" stroke-dasharray="1.9916 2.9874"/></g><circle cx="380.3" cy="190.4" fill="#25a9ef" fill-rule="nonzero" r="3.5"/><circle cx="487.6" cy="190.4" fill="#25a9ef" fill-rule="nonzero" r="3.5"/><circle cx="434.2" cy="65.9" fill="#25a9ef" fill-rule="nonzero" r="3.5"/><circle cx="487.8" cy="34.5" fill="#25a9ef" fill-rule="nonzero" r="3.5"/><circle cx="380.1" cy="97" fill="#25a9ef" fill-rule="nonzero" r="3.5"/><circle cx="327" cy="128.9" fill="#25a9ef" fill-rule="nonzero" r="3.5"/><circle cx="272.7" cy="97.4" fill="#25a9ef" fill-rule="nonzero" r="3.5"/><circle cx="273" cy="159.2" fill="#25a9ef" fill-rule="nonzero" r="3.5"/><circle cx="380.3" cy="346.1" fill="#25a9ef" fill-rule="nonzero" r="3.5"/><circle cx="111.7" cy="438.9" fill="#25a9ef" fill-rule="nonzero" r="3.5"/><circle cx="111.5" cy="563.1" fill="#00cc83" fill-rule="nonzero" r="3.5"/><circle cx="111.7" cy="625.3" fill="#00cc83" fill-rule="nonzero" r="3.5"/><circle cx="218.9" cy="625.8" fill="#00cc83" fill-rule="nonzero" r="3.5"/><circle cx="165.3" cy="97" fill="#00cc83" fill-rule="nonzero" r="3.5"/><circle cx="111.5" cy="66.2" fill="#00cc83" fill-rule="nonzero" r="3.5"/><circle cx="380.1" cy="159.2" fill="#25a9ef" fill-rule="nonzero" r="3.5"/><circle cx="487.6" cy="97" fill="#25a9ef" fill-rule="nonzero" r="3.5"/><circle cx="595.2" cy="159.2" fill="#25a9ef" fill-rule="nonzero" r="3.5"/><circle cx="541" cy="4.1" fill="#25a9ef" fill-rule="nonzero" r="3.5"/><circle cx="487.6" cy="159.6" fill="#25a9ef" fill-rule="nonzero" r="3.5"/><circle cx="272.7" cy="687.4" fill="#00cc83" fill-rule="nonzero" r="3.5"/><circle cx="380.8" cy="718.3" fill="#00cc83" fill-rule="nonzero" r="3.5"/><circle cx="702.7" cy="656.3" fill="#25a9ef" fill-rule="nonzero" r="3.5"/><circle cx="810.3" cy="718.5" fill="#25a9ef" fill-rule="nonzero" r="3.5"/><circle cx="971.8" cy="687.4" fill="#25a9ef" fill-rule="nonzero" r="3.5"/><circle cx="1078.7" cy="687.7" fill="#25a9ef" fill-rule="nonzero" r="3.5"/><circle cx="1132.8" cy="717.9" fill="#25a9ef" fill-rule="nonzero" r="3.5"/><circle cx="1293.9" cy="749" fill="#25a9ef" fill-rule="nonzero" r="3.5"/><circle cx="1240" cy="843.4" fill="#25a9ef" fill-rule="nonzero" r="3.5"/><circle cx="1293.9" cy="625.4" fill="#25a9ef" fill-rule="nonzero" r="3.5"/><circle cx="1455.4" cy="656" fill="#25a9ef" fill-rule="nonzero" r="3.5"/><circle cx="1508.5" cy="625.7" fill="#25a9ef" fill-rule="nonzero" r="3.5"/><circle cx="1455.4" cy="718.9" fill="#25a9ef" fill-rule="nonzero" r="3.5"/><circle cx="1616.5" cy="749.9" fill="#25a9ef" fill-rule="nonzero" r="3.5"/><circle cx="703.2" cy="718.5" fill="#25a9ef" fill-rule="nonzero" r="3.5"/><circle cx="810.3" cy="656.3" fill="#25a9ef" fill-rule="nonzero" r="3.5"/><circle cx="165.3" cy="687.4" fill="#00cc83" fill-rule="nonzero" r="3.5"/><circle cx="156.9" cy="749.4" fill="#00cc83" fill-rule="nonzero" r="3.5"/><circle cx="111.5" cy="749.3" fill="#25a9ef" fill-rule="nonzero" r="3.5"/><circle cx="3.8" cy="749.4" fill="#25a9ef" fill-rule="nonzero" r="3.5"/><circle cx="1724" cy="749.4" fill="#25a9ef" fill-rule="nonzero" r="3.5"/><circle cx="281.2" cy="749.4" fill="#00cc83" fill-rule="nonzero" r="3.5"/><circle cx="488.1" cy="656.5" fill="#00cc83" fill-rule="nonzero" r="3.5"/><circle cx="595.2" cy="718.2" fill="#25a9ef" fill-rule="nonzero" r="3.5"/><circle cx="648.8" cy="563.1" fill="#25a9ef" fill-rule="nonzero" r="3.5"/><path d="M380.3 190.4h107.3" stroke="#25a9ef" stroke-linecap="round" stroke-linejoin="round"/><circle cx="434.2" cy="190.4" fill="#204ecf" fill-rule="nonzero" r="3.5" stroke="#25a9ef"/><circle cx="218.6" cy="128.9" fill="#204ecf" fill-rule="nonzero" r="3.5" stroke="#25a9ef"/><circle cx="111.7" cy="252.6" fill="#204ecf" fill-rule="nonzero" r="3.5" stroke="#00cc83"/><circle cx="57.9" cy="345.4" fill="#204ecf" fill-rule="nonzero" r="3.5" stroke="#25a9ef"/><circle cx="273.6" cy="221.5" fill="#204ecf" fill-rule="nonzero" r="3.5" stroke="#25a9ef"/><circle cx="219.2" cy="190.4" fill="#204ecf" fill-rule="nonzero" r="3.5" stroke="#25a9ef"/><circle cx="326.5" cy="315.1" fill="#204ecf" fill-rule="nonzero" r="3.5" stroke="#25a9ef"/><circle cx="165.3" cy="656.1" fill="#204ecf" fill-rule="nonzero" r="3.5" stroke="#00cc83"/><circle cx="326.5" cy="811.5" fill="#204ecf" fill-rule="nonzero" r="3.5" stroke="#00cc83"/><circle cx="595.2" cy="656.8" fill="#204ecf" fill-rule="nonzero" r="3.5" stroke="#25a9ef"/><circle cx="918.2" cy="656.5" fill="#204ecf" fill-rule="nonzero" r="3.5" stroke="#25a9ef"/><circle cx="1025.3" cy="718" fill="#204ecf" fill-rule="nonzero" r="3.5" stroke="#25a9ef"/><circle cx="1078.9" cy="748.7" fill="#204ecf" fill-rule="nonzero" r="3.5" stroke="#25a9ef"/><circle cx="1239.7" cy="780.5" fill="#204ecf" fill-rule="nonzero" r="3.5" stroke="#25a9ef"/><circle cx="1348" cy="656.6" fill="#204ecf" fill-rule="nonzero" r="3.5" stroke="#25a9ef"/><circle cx="1562.7" cy="718.3" fill="#204ecf" fill-rule="nonzero" r="3.5" stroke="#25a9ef"/><circle cx="1670" cy="718.3" fill="#204ecf" fill-rule="nonzero" r="3.5" stroke="#25a9ef"/><circle cx="1669.9" cy="780.5" fill="#204ecf" fill-rule="nonzero" r="3.5" stroke="#25a9ef"/><circle cx="1616.5" cy="811.3" fill="#204ecf" fill-rule="nonzero" r="3.5" stroke="#25a9ef"/><circle cx="1400.8" cy="562.6" fill="#204ecf" fill-rule="nonzero" r="3.5" stroke="#25a9ef"/><circle cx="487.7" cy="470.1" fill="#204ecf" fill-rule="nonzero" r="3.5" stroke="#25a9ef"/><circle cx="594.9" cy="780.5" fill="#204ecf" fill-rule="nonzero" r="3.5" stroke="#25a9ef"/><circle cx="273.1" cy="283.9" fill="#204ecf" fill-rule="nonzero" r="3.5" stroke="#25a9ef"/><circle cx="165.4" cy="35.1" fill="#204ecf" fill-rule="nonzero" r="3.5" stroke="#00cc83"/><path d="M165.3 687.4h107.4" stroke="#00cc83" stroke-linecap="round" stroke-linejoin="round"/><circle cx="219" cy="687.4" fill="#204ecf" fill-rule="nonzero" r="3.5" stroke="#00cc83"/><circle cx="1616" cy="314.7" fill="#25a9ef" fill-rule="nonzero" r="3.5"/><circle cx="1616.5" cy="190.4" fill="#00cc83" fill-rule="nonzero" r="3.5"/><circle cx="1562.3" cy="283.6" fill="#00cc83" fill-rule="nonzero" r="3.5"/><circle cx="1401.5" cy="65.9" fill="#25a9ef" fill-rule="nonzero" r="3.5"/><circle cx="1347.7" cy="159.4" fill="#25a9ef" fill-rule="nonzero" r="3.5"/><circle cx="1132.7" cy="283.8" fill="#25a9ef" fill-rule="nonzero" r="3.5"/><circle cx="810.3" cy="345.3" fill="#25a9ef" fill-rule="nonzero" r="3.5"/><circle cx="756.3" cy="438.9" fill="#00cc83" fill-rule="nonzero" r="3.5"/><circle cx="648.8" cy="315.1" fill="#25a9ef" fill-rule="nonzero" r="3.5"/><circle cx="648.8" cy="376.8" fill="#25a9ef" fill-rule="nonzero" r="3.5"/><circle cx="1186.5" cy="377.2" fill="#25a9ef" fill-rule="nonzero" r="3.5"/><circle cx="1024.5" cy="159.3" fill="#00cc83" fill-rule="nonzero" r="3.5"/><circle cx="917.5" cy="159.3" fill="#00cc83" fill-rule="nonzero" r="3.5"/><circle cx="971.7" cy="66.5" fill="#00cc83" fill-rule="nonzero" r="3.5"/><circle cx="1132.4" cy="35.3" fill="#00cc83" fill-rule="nonzero" r="3.5"/><circle cx="1080.1" cy="65.9" fill="#25a9ef" fill-rule="nonzero" r="3.5"/><circle cx="1024.9" cy="97.3" fill="#25a9ef" fill-rule="nonzero" r="3.5"/><circle cx="1240.3" cy="97" fill="#25a9ef" fill-rule="nonzero" r="3.5"/><circle cx="1401.5" cy="190.1" fill="#25a9ef" fill-rule="nonzero" r="3.5"/><circle cx="1616" cy="501.1" fill="#25a9ef" fill-rule="nonzero" r="3.5"/><circle cx="1562.8" cy="408.2" fill="#25a9ef" fill-rule="nonzero" r="3.5"/><circle cx="1670" cy="531.9" fill="#25a9ef" fill-rule="nonzero" r="3.5"/><circle cx="1670" cy="407.8" fill="#25a9ef" fill-rule="nonzero" r="3.5"/><circle cx="1670" cy="594.4" fill="#25a9ef" fill-rule="nonzero" r="3.5"/><circle cx="1455" cy="531.9" fill="#25a9ef" fill-rule="nonzero" r="3.5"/><path d="M1616 314.7v186.4" stroke="#25a9ef" stroke-linecap="round" stroke-linejoin="round"/><circle cx="1616.5" cy="407.5" fill="#204ecf" fill-rule="nonzero" r="3.5" stroke="#25a9ef"/><circle cx="1509.3" cy="314.7" fill="#204ecf" fill-rule="nonzero" r="3.5" stroke="#00cc83"/><circle cx="1670.9" cy="221.5" fill="#204ecf" fill-rule="nonzero" r="3.5" stroke="#00cc83"/><circle cx="1455.5" cy="96.8" fill="#204ecf" fill-rule="nonzero" r="3.5" stroke="#25a9ef"/><circle cx="1347.7" cy="97.5" fill="#204ecf" fill-rule="nonzero" r="3.5" stroke="#25a9ef"/><circle cx="1293.6" cy="66.2" fill="#204ecf" fill-rule="nonzero" r="3.5" stroke="#25a9ef"/><circle cx="1240.4" cy="159.3" fill="#204ecf" fill-rule="nonzero" r="3.5" stroke="#25a9ef"/><circle cx="1239.9" cy="283.8" fill="#204ecf" fill-rule="nonzero" r="3.5" stroke="#25a9ef"/><circle cx="1078.8" cy="190.4" fill="#204ecf" fill-rule="nonzero" r="3.5" stroke="#00cc83"/><circle cx="1132.9" cy="97.9" fill="#204ecf" fill-rule="nonzero" r="3.5" stroke="#00cc83"/><circle cx="918.1" cy="97.4" fill="#204ecf" fill-rule="nonzero" r="3.5" stroke="#00cc83"/><circle cx="918.1" cy="283.3" fill="#204ecf" fill-rule="nonzero" r="3.5" stroke="#00cc83"/><circle cx="702.7" cy="283.4" fill="#204ecf" fill-rule="nonzero" r="3.5" stroke="#25a9ef"/><circle cx="864.1" cy="376.8" fill="#204ecf" fill-rule="nonzero" r="3.5" stroke="#00cc83"/><circle cx="756.5" cy="190.4" fill="#204ecf" fill-rule="nonzero" r="3.5" stroke="#25a9ef"/><circle cx="595.2" cy="96.9" fill="#204ecf" fill-rule="nonzero" r="3.5" stroke="#25a9ef"/><circle cx="433.7" cy="4.1" fill="#204ecf" fill-rule="nonzero" r="3.5" stroke="#25a9ef"/><circle cx="971.7" cy="4.5" fill="#204ecf" fill-rule="nonzero" r="3.5" stroke="#00cc83"/><circle cx="1401.5" cy="252.8" fill="#204ecf" fill-rule="nonzero" r="3.5" stroke="#25a9ef"/><circle cx="1509.3" cy="501" fill="#204ecf" fill-rule="nonzero" r="3.5" stroke="#25a9ef"/><circle cx="1616.8" cy="562.5" fill="#204ecf" fill-rule="nonzero" r="3.5" stroke="#25a9ef"/><circle cx="1454.8" cy="407.5" fill="#204ecf" fill-rule="nonzero" r="3.5" stroke="#25a9ef"/><circle cx="1347.8" cy="470.2" fill="#204ecf" fill-rule="nonzero" r="3.5" stroke="#25a9ef"/><path d="M57.8 531.8L4 501v-62.2M1723.5 501.1v-62.2l-53.8-31" stroke="#25a9ef" stroke-linecap="round" stroke-linejoin="round"/><circle cx="57.8" cy="531.8" fill="#204ecf" fill-rule="nonzero" r="3.5" stroke="#25a9ef"/><path d="M1723.5 66.2l-53.3 31 53.7 31.2" stroke="#00cc83" stroke-linecap="round" stroke-linejoin="round"/><circle cx="1670.5" cy="97.3" fill="#204ecf" fill-rule="nonzero" r="3.5" stroke="#00cc83"/><path d="M4.1 66.2l53.6 31 53.8-31M57.8 159.3L4 128.4" stroke="#00cc83" stroke-linecap="round" stroke-linejoin="round"/><circle cx="57.7" cy="159.3" fill="#204ecf" fill-rule="nonzero" r="3.5" stroke="#00cc83"/><circle cx="4" cy="66.1" fill="#204ecf" fill-rule="nonzero" r="3.5" stroke="#00cc83"/><circle cx="1724" cy="66.1" fill="#204ecf" fill-rule="nonzero" r="3.5" stroke="#00cc83"/><path d="M4 749.4l53.8 31.1 53.7-31" stroke="#25a9ef"/></g></g></g></svg>
